# xmcd
#
# Track frame offsets:
#	150
#	21021
#	74126
#	102179
#	111257
#	131701
#	153745
#	181532
#	210279
#	236773
#
# Disc length: 3548 seconds
#
# Revision: 0
# Processed by: cddbd v1.5.2PL0 Copyright (c) Steve Scherf et al.
# Submitted via: dBpowerAMP V4.0
#
DISCID=870dda0a
DTITLE=Eric Clapton and Buddy Guy - at Ronnie Scotts 1987
DYEAR=1987
DGENRE=Blues
TTITLE0=Sweet Home Chicago
TTITLE1=Play The Blues
TTITLE2=Key To The Highway
TTITLE3=Walking The Dog
TTITLE4=Stormy Monday
TTITLE5=Real Mother For Ya
TTITLE6=Stormy Monday
TTITLE7=Jam
TTITLE8=Worried Life Blues #1
TTITLE9=Worried Life Blues #2
EXTD=
EXTT0=
EXTT1=
EXTT2=
EXTT3=
EXTT4=
EXTT5=
EXTT6=
EXTT7=
EXTT8=
EXTT9=
PLAYORDER=
